<svg width="24" height="24" viewBox="10 6 26 24" fill="none" xmlns="http://www.w3.org/2000/svg">
  <path d="M27.8889 17C27.5353 17 27.1961 16.8595 26.9461 16.6095C26.696 16.3594 26.5556 16.0203 26.5556 15.6667C26.5556 15.313 26.696 14.9739 26.9461 14.7239C27.1961 14.4738 27.5353 14.3333 27.8889 14.3333C28.2425 14.3333 28.5816 14.4738 28.8317 14.7239C29.0817 14.9739 29.2222 15.313 29.2222 15.6667C29.2222 16.0203 29.0817 16.3594 28.8317 16.6095C28.5816 16.8595 28.2425 17 27.8889 17ZM25.2222 13.4444C24.8686 13.4444 24.5295 13.304 24.2794 13.0539C24.0294 12.8039 23.8889 12.4647 23.8889 12.1111C23.8889 11.7575 24.0294 11.4184 24.2794 11.1683C24.5295 10.9183 24.8686 10.7778 25.2222 10.7778C25.5758 10.7778 25.915 10.9183 26.165 11.1683C26.4151 11.4184 26.5556 11.7575 26.5556 12.1111C26.5556 12.4647 26.4151 12.8039 26.165 13.0539C25.915 13.304 25.5758 13.4444 25.2222 13.4444ZM20.7778 13.4444C20.4242 13.4444 20.085 13.304 19.835 13.0539C19.5849 12.8039 19.4444 12.4647 19.4444 12.1111C19.4444 11.7575 19.5849 11.4184 19.835 11.1683C20.085 10.9183 20.4242 10.7778 20.7778 10.7778C21.1314 10.7778 21.4705 10.9183 21.7206 11.1683C21.9706 11.4184 22.1111 11.7575 22.1111 12.1111C22.1111 12.4647 21.9706 12.8039 21.7206 13.0539C21.4705 13.304 21.1314 13.4444 20.7778 13.4444ZM18.1111 17C17.7575 17 17.4184 16.8595 17.1683 16.6095C16.9183 16.3594 16.7778 16.0203 16.7778 15.6667C16.7778 15.313 16.9183 14.9739 17.1683 14.7239C17.4184 14.4738 17.7575 14.3333 18.1111 14.3333C18.4647 14.3333 18.8039 14.4738 19.0539 14.7239C19.304 14.9739 19.4444 15.313 19.4444 15.6667C19.4444 16.0203 19.304 16.3594 19.0539 16.6095C18.8039 16.8595 18.4647 17 18.1111 17ZM23 9C20.8783 9 18.8434 9.84285 17.3431 11.3431C15.8429 12.8434 15 14.8783 15 17C15 19.1217 15.8429 21.1566 17.3431 22.6569C18.8434 24.1571 20.8783 25 23 25C23.3536 25 23.6928 24.8595 23.9428 24.6095C24.1929 24.3594 24.3333 24.0203 24.3333 23.6667C24.3333 23.32 24.2 23.0089 23.9867 22.7778C23.7822 22.5378 23.6489 22.2267 23.6489 21.8889C23.6489 21.5353 23.7894 21.1961 24.0394 20.9461C24.2895 20.696 24.6286 20.5556 24.9822 20.5556H26.5556C27.7343 20.5556 28.8648 20.0873 29.6983 19.2538C30.5317 18.4203 31 17.2899 31 16.1111C31 12.1822 27.4178 9 23 9Z" fill="#FF1F5B"/>
</svg>
